<svg width="130" height="130" viewBox="0 0 130 130" fill="none" xmlns="http://www.w3.org/2000/svg">
<mask id="mask0" mask-type="alpha" maskUnits="userSpaceOnUse" x="0" y="0" width="130" height="130">
<rect x="0.5" y="0.5" width="129" height="129" fill="#C4C4C4" stroke="white"/>
</mask>
<g mask="url(#mask0)">
<path d="M40.05 38.2H59.246C60.1225 36.6402 61.1738 35.1902 62.4 33.85C66.8 29.15 72.4 26.8 79.2 26.8C83.8 26.8 87.85 27.9 91.35 30.1C94.85 32.2 97.6 35.15 99.6 38.95C101.6 42.75 102.6 47.1 102.6 52C102.6 59.5 100.4 65.6 96 70.3C95.0553 71.2876 94.0553 72.1692 93 72.9448V89.5393C95.8878 88.7204 98.5878 87.5573 101.1 86.05C106.6 82.65 110.9 78.05 114 72.25C117.2 66.35 118.8 59.65 118.8 52.15C118.8 44.65 117.2 37.95 114 32.05C110.9 26.15 106.6 21.5 101.1 18.1C95.6 14.7 89.25 13 82.05 13C75.45 13 70.05 14.35 65.85 17.05C61.65 19.75 58.35 22.85 55.95 26.35L54.3 14.8H40.05V38.2Z" fill="#FC4735"/>
<path d="M12 89.3V75.95H40.35V49.4H54.15V75.95H82.5V89.3H54.15V116H40.35V89.3H12Z" fill="#FC4735"/>
</g>
</svg>
