<svg width="322" height="436" viewBox="0 0 322 436" fill="none" xmlns="http://www.w3.org/2000/svg">
<path d="M148.33 386.742L147.333 428.601L219.944 429.312C219.944 429.312 220.371 420.77 206.561 414.363C192.751 407.956 189.903 382.614 189.903 382.614L148.33 386.742Z" fill="#FC4735"/>
<path d="M220.941 430.309L146.194 429.597L147.191 385.746L190.757 381.475L190.9 382.471C190.9 382.756 193.889 407.244 206.988 413.367C221.225 419.916 221.083 428.885 221.083 429.313L220.941 430.309ZM148.33 427.462L218.663 428.174C218.236 425.896 216.242 420.058 205.991 415.36C193.32 409.522 189.618 388.736 188.906 383.895L149.326 387.882L148.33 427.462Z" fill="#FF3E6C"/>
<path d="M17.6299 369.088L2.11108 407.956L69.8814 433.868C69.8814 433.868 73.156 426.038 62.4779 415.217C51.7998 404.397 57.9219 379.624 57.9219 379.624L17.6299 369.088Z" fill="#FC4735"/>
<path d="M70.5931 435.292L0.82959 408.526L17.0603 367.807L59.3455 378.912L59.0608 379.908C59.0608 380.193 53.2235 404.255 63.3321 414.506C74.4373 425.611 71.0203 434.011 70.8779 434.296L70.5931 435.292ZM3.53474 407.244L69.1694 432.445C69.5965 430.167 69.7389 423.902 61.7659 415.929C51.9421 405.963 55.6438 385.319 56.6404 380.478L18.1993 370.369L3.53474 407.244Z" fill="#FF3E6C"/>
<path d="M70.0237 198.666C58.2066 218.313 53.2235 273.128 40.1251 301.175C27.0266 329.223 11.6501 374.498 11.6501 374.498L65.4678 397.278C65.4678 397.278 102.058 315.413 106.187 272.7C110.316 229.988 109.319 192.971 109.319 192.971L70.0237 198.666Z" fill="#030047"/>
<path d="M92.8037 220.022C93.9427 242.802 123.13 285.799 127.828 316.552C132.526 347.305 144.77 402.688 144.77 402.688L202.147 391.868C202.147 391.868 194.602 305.874 169.686 252.768C151.462 213.9 125.265 188.13 125.265 188.13L92.8037 220.022Z" fill="#030047"/>
<path d="M104.763 257.039C104.336 257.039 104.051 256.897 103.766 256.47L100.207 250.063L89.5289 246.219C88.9594 246.076 88.6747 245.364 88.817 244.795C88.9594 244.226 89.6713 243.941 90.2408 244.083L101.631 248.07L105.475 255.188C105.76 255.758 105.617 256.327 105.048 256.612C105.19 257.039 105.048 257.039 104.763 257.039Z" fill="white"/>
<path d="M57.7793 401.265C55.6437 402.404 53.3657 403.685 51.2301 404.824C50.3759 405.251 51.0877 406.533 51.942 406.105C54.0776 404.966 56.3556 403.685 58.4912 402.546C59.203 401.977 58.4912 400.695 57.7793 401.265Z" fill="#030047"/>
<path d="M58.7762 405.678C57.0678 407.102 55.2169 408.383 53.5084 409.807C52.7965 410.377 53.5084 411.658 54.2202 411.089L59.4881 406.96C60.2 406.39 59.4881 405.109 58.7762 405.678Z" fill="#030047"/>
<path d="M197.306 403.97C196.452 405.821 195.598 407.529 194.601 409.38C194.174 410.234 195.456 410.946 195.883 410.092L198.588 404.682C199.015 403.827 197.733 403.116 197.306 403.97Z" fill="#030047"/>
<path d="M201.436 408.81C200.581 410.661 199.727 412.37 198.73 414.221C198.303 415.075 199.585 415.787 200.012 414.933L202.717 409.522C203.002 408.668 201.863 407.956 201.436 408.81Z" fill="#030047"/>
<path d="M191.042 390.159C190.472 390.159 190.045 389.732 190.045 389.163C187.767 306.586 138.648 216.747 138.221 215.893C137.936 215.323 138.079 214.754 138.648 214.469C139.218 214.184 139.787 214.327 140.072 214.896C140.499 215.751 189.761 306.016 192.181 389.163C192.039 389.59 191.611 390.159 191.042 390.159Z" fill="white"/>
<path d="M148.045 234.259C147.903 234.259 147.76 234.259 147.618 234.259C147.048 234.117 146.764 233.405 147.048 232.836C149.753 225.574 146.479 215.608 146.479 215.466C146.336 214.896 146.621 214.327 147.191 214.042C147.76 213.9 148.33 214.184 148.614 214.754C148.757 215.181 152.316 225.574 149.184 233.547C148.899 233.975 148.472 234.259 148.045 234.259Z" fill="white"/>
<path d="M140.642 73.9456C145.055 84.4813 145.34 95.7288 131.529 100.142C122.133 103.132 110.885 98.7188 106.472 88.183C102.058 77.6473 106.187 65.9726 115.584 61.9861C124.98 57.9996 136.228 63.4099 140.642 73.9456Z" fill="white"/>
<path d="M125.55 102.136C117.15 102.136 108.892 97.0102 105.475 88.6101C103.197 83.3422 103.055 77.5049 104.763 72.237C106.614 66.9691 110.316 62.9826 115.156 60.9894C125.123 56.8605 136.94 62.4131 141.638 73.5183C144.77 81.0642 145.197 87.4711 143.062 92.3118C141.211 96.4407 137.367 99.2882 131.957 101.139C129.821 101.851 127.685 102.136 125.55 102.136ZM122.133 61.8437C120.139 61.8437 118.004 62.2707 116.011 63.125C111.739 64.9759 108.465 68.3929 106.899 73.0912C105.333 77.7896 105.475 83.0575 107.468 87.8982C111.882 98.2916 122.987 101.851 131.245 99.1458C136.228 97.5796 139.502 95.0169 141.069 91.4576C143.062 87.1863 142.635 81.349 139.645 74.3726C136.513 66.6844 129.251 61.8437 122.133 61.8437Z" fill="#030047"/>
<path d="M132.811 74.3726C133.597 74.3726 134.234 73.7352 134.234 72.9489C134.234 72.1625 133.597 71.5251 132.811 71.5251C132.024 71.5251 131.387 72.1625 131.387 72.9489C131.387 73.7352 132.024 74.3726 132.811 74.3726Z" fill="#030047"/>
<path d="M133.95 59.7081C133.95 50.3114 118.431 60.847 115.726 62.1284C107.326 63.6945 99.9223 74.7998 102.485 84.6237C104.621 93.0238 114.302 102.99 119.428 100.57C127.828 95.5864 129.109 87.3287 125.265 79.4981C126.689 77.7896 124.98 75.2269 125.692 73.2337C126.546 69.9591 133.95 62.9827 133.95 59.7081Z" fill="#030047"/>
<path d="M122.275 78.6439C106.614 77.2201 108.465 89.7491 114.302 92.5966C119.143 94.8746 126.546 94.0203 129.536 86.9016C132.526 79.9252 122.275 78.6439 122.275 78.6439Z" fill="white"/>
<path d="M123.699 84.0541C120.709 82.488 117.007 83.1999 114.871 85.905C114.302 86.6169 115.299 87.6135 115.868 86.9016C117.577 84.766 120.566 84.0542 122.987 85.3355C123.699 85.7627 124.411 84.4813 123.699 84.0541Z" fill="#030047"/>
<path d="M141.923 77.5049C140.356 74.7998 138.363 72.237 135.943 70.1014C135.231 69.5319 134.234 70.5285 134.946 71.098C137.224 73.2337 139.075 75.5116 140.641 78.2168C141.068 78.9286 142.35 78.2168 141.923 77.5049Z" fill="#030047"/>
<path d="M73.8676 216.178H73.0134C72.4439 216.178 60.342 215.608 46.1046 203.649L44.8232 202.652L82.4101 184.428L73.8676 216.178ZM48.6673 203.079C59.7725 211.906 69.454 213.615 72.1591 213.9L78.9931 188.272L48.6673 203.079Z" fill="#030047"/>
<path d="M29.7315 143.994C24.0365 163.072 28.4501 192.971 43.6842 203.791C43.6842 203.791 62.9048 197.099 67.4607 198.096C72.3015 189.838 77.8541 182.15 82.9796 174.035C76.4304 171.472 70.593 169.479 69.3116 162.075C65.6099 142.143 89.244 146.414 104.905 151.112C108.749 135.736 110.173 111.675 110.173 111.675C72.1591 101.993 38.8434 113.953 29.7315 143.994Z" fill="#FC4735"/>
<path d="M43.542 205.073L43.1149 204.788C27.7384 193.825 22.8976 163.499 28.735 143.709C37.7046 113.668 70.4508 100.427 110.316 110.678L111.17 110.963V111.817C111.17 112.102 109.746 136.163 105.902 151.397L105.617 152.536L104.478 152.252C88.3899 147.411 77.4271 147.126 72.7288 151.255C70.3084 153.533 69.4541 157.092 70.3084 161.933C71.5897 168.625 76.7152 170.618 83.1221 173.038L84.4035 173.465L83.834 174.604C82.1255 177.309 80.2746 180.015 78.5661 182.72C75.1491 187.845 71.5898 193.255 68.4575 198.666L68.0304 199.378L67.3185 199.235C64.1863 198.523 51.7997 202.225 44.2538 204.93L43.542 205.073ZM30.8706 144.421C25.1756 163.214 29.5892 191.974 43.9691 202.795C47.3861 201.656 61.7659 196.815 66.8914 197.1C70.0237 191.832 73.4406 186.706 76.7152 181.723C78.2813 179.445 79.8475 177.167 81.2712 174.747C75.0068 172.326 69.4541 169.906 68.1728 162.36C67.1761 156.665 68.1728 152.394 71.1627 149.689C76.4305 144.99 87.3934 144.99 103.909 149.831C107.041 136.448 108.465 116.943 108.892 112.529C70.7355 102.99 39.4131 115.804 30.8706 144.421Z" fill="#FC4735"/>
<path d="M85.6854 198.239H47.529C43.6849 198.239 40.4103 195.106 40.4103 191.12V136.875C40.4103 133.031 43.5425 129.756 47.529 129.756H85.6854C89.5295 129.756 92.8041 132.889 92.8041 136.875V191.12C92.8041 195.106 89.6719 198.239 85.6854 198.239Z" fill="white"/>
<path d="M85.6848 199.235H47.5285C43.1148 199.235 39.4131 195.533 39.4131 191.12V136.875C39.4131 132.461 43.1148 128.76 47.5285 128.76H85.6848C90.0984 128.76 93.8002 132.461 93.8002 136.875V191.12C93.8002 195.676 90.2408 199.235 85.6848 199.235ZM47.6709 130.895C44.3963 130.895 41.6911 133.6 41.6911 136.875V191.12C41.6911 194.394 44.3963 197.1 47.6709 197.1H85.8273C89.1019 197.1 91.807 194.394 91.807 191.12V136.875C91.807 133.6 89.1019 130.895 85.8273 130.895H47.6709Z" fill="#030047"/>
<path d="M50.8029 129.756H47.6707C43.8266 129.756 40.552 132.889 40.552 136.875V191.12C40.552 194.964 43.6842 198.239 47.6707 198.239H50.8029V129.756Z" fill="#030047"/>
<path d="M121.421 111.959C99.2106 107.119 90.241 117.655 82.268 150.116C74.295 182.577 60.0575 201.371 60.0575 201.371C60.0575 201.371 124.696 219.595 152.174 215.608C152.174 215.751 168.689 122.21 121.421 111.959Z" fill="#FC4735"/>
<path d="M142.919 217.459C112.878 217.459 62.0507 203.222 59.7727 202.51L58.2065 202.083L59.2032 200.801C59.3456 200.659 73.4406 181.723 81.2712 149.831C89.6713 115.519 99.4952 105.98 121.706 110.821C141.496 115.092 153.17 134.739 155.591 167.486C157.299 191.974 153.313 215.608 153.17 215.751L153.028 216.462L152.316 216.605C149.469 217.317 146.336 217.459 142.919 217.459ZM61.7659 200.944C71.4474 203.506 126.262 218.029 151.177 214.896C152.601 205.927 164.56 122.495 121.278 113.099C100.349 108.543 91.5222 117.227 83.4069 150.543C76.5729 178.164 65.0405 196.103 61.7659 200.944Z" fill="#FC4735"/>
<path d="M103.766 115.804L106.044 104.556L136.37 107.973L132.668 121.641L103.766 115.804Z" fill="#FC4735"/>
<path d="M133.523 122.922L102.627 116.515L105.332 103.275L137.794 106.976L133.523 122.922ZM105.048 114.949L131.956 120.502L134.946 108.97L106.899 105.837L105.048 114.949Z" fill="#FC4735"/>
<path d="M239.022 93.4508C238.595 86.1896 233.185 84.9083 233.185 84.9083C232.758 80.637 226.635 79.3557 226.635 79.3557C228.344 71.2404 230.907 68.5353 229.625 66.1149C227.775 62.4132 224.358 64.9758 220.371 73.0912C219.517 72.3793 218.235 72.3793 215.957 74.0878C210.832 77.932 208.696 88.3253 210.262 100.427C210.262 100.427 210.262 100.427 210.262 100.569C209.835 101.566 209.408 102.42 208.981 103.132L228.202 128.333C228.202 128.333 232.615 125.627 233.754 116.658C234.466 111.675 235.32 104.414 236.032 100.712C240.303 101.281 239.307 97.0101 239.022 93.4508Z" fill="white"/>
<path d="M228.059 129.756L207.842 103.132L208.127 102.563C208.554 101.851 208.981 101.139 209.266 100.285C207.557 87.8982 209.978 77.2201 215.388 73.2337C217.239 71.9523 218.663 71.3827 219.944 71.6675C222.791 66.1149 225.212 63.4098 227.49 63.4098C228.344 63.4098 229.625 63.8369 230.48 65.6877C231.334 67.5386 230.764 69.2471 229.768 71.9523C229.198 73.6607 228.344 75.7963 227.775 78.7862C229.625 79.3557 233.327 80.9219 234.039 84.3389C235.605 85.0507 239.592 87.1863 239.876 93.5932C239.876 94.1627 240.019 94.5898 240.019 95.1593C240.161 97.5797 240.446 100 239.022 101.281C238.453 101.851 237.741 101.993 236.887 101.993C236.317 104.841 235.748 109.112 235.32 112.814C235.178 114.238 234.893 115.661 234.751 116.8C233.47 126.197 228.914 129.187 228.629 129.329L228.059 129.756ZM210.405 102.99L228.486 126.766C229.625 125.627 232.046 122.495 232.9 116.515C233.042 115.234 233.185 113.953 233.47 112.529C234.039 108.258 234.609 103.275 235.32 100.57L235.605 99.573L236.602 99.7153C237.029 99.8577 237.741 99.8577 238.026 99.573C238.595 99.0035 238.453 96.8678 238.31 95.1593C238.31 94.5898 238.168 94.0203 238.168 93.5932C237.883 87.3287 233.327 86.0474 233.185 86.0474L232.473 85.9049L232.331 85.1931C232.046 81.7761 226.636 80.6371 226.636 80.4947L225.639 80.21L225.924 79.2133C226.636 75.654 227.632 73.0913 228.202 71.098C229.056 68.6777 229.483 67.5387 228.914 66.542C228.486 65.8302 228.202 65.4031 227.775 65.4031C227.347 65.4031 225.354 65.8301 221.652 73.5183L221.083 74.7997L220.086 73.8031C219.374 73.2336 217.808 74.3726 217.097 74.7997C212.398 78.3591 210.263 88.4677 211.829 100.142V100.427L211.686 100.712C211.117 101.566 210.69 102.278 210.405 102.99Z" fill="#030047"/>
<path d="M221.368 71.9523L201.008 92.4542C198.588 94.8746 202.432 98.7187 205.706 95.4441L217.523 83.7693C218.093 79.9252 218.947 76.0811 221.368 71.9523Z" fill="#030047"/>
<path d="M232.9 64.1217C232.33 63.5522 230.48 64.1217 228.913 64.8335C230.337 66.6844 229.768 69.3895 229.198 71.6675L230.764 70.1014C232.046 68.82 233.897 65.1183 232.9 64.1217Z" fill="#030047"/>
<path d="M225.354 81.7761L224.358 84.6236C224.073 85.4779 225.354 85.905 225.781 85.0507C226.066 84.0541 226.493 83.1999 226.778 82.2032C227.063 81.349 225.639 81.0643 225.354 81.7761Z" fill="#030047"/>
<path d="M237.884 93.7355C237.741 92.8813 236.317 93.166 236.46 94.1626C236.602 95.3016 236.46 96.4407 236.033 97.5797C235.748 98.4339 237.029 98.861 237.456 98.0068C238.026 96.583 238.026 95.1593 237.884 93.7355Z" fill="#030047"/>
<path d="M219.944 73.2337C218.236 76.5083 216.385 81.9184 215.815 85.6202C215.673 86.4744 217.097 86.9016 217.239 86.0474C217.808 82.488 219.517 77.2201 221.225 74.0879C221.653 73.0913 220.371 72.3794 219.944 73.2337Z" fill="#030047"/>
<path d="M231.619 86.0474C231.334 86.6169 231.192 87.3287 230.907 87.8982C230.622 88.7525 231.904 89.1796 232.331 88.3253C232.615 87.7558 232.758 87.044 233.043 86.4745C233.327 85.6202 232.046 85.1931 231.619 86.0474Z" fill="#030047"/>
<path d="M209.693 101.993C202.147 117.085 197.306 122.638 188.337 125.2C174.811 129.187 142.492 111.39 122.275 114.665L117.434 156.096C117.434 156.096 146.763 175.174 180.649 172.469C209.978 170.048 229.483 140.007 233.042 125.2C229.483 115.519 217.666 107.404 209.693 101.993Z" fill="#FC4735"/>
<path d="M173.815 173.892C142.919 173.892 117.007 157.235 116.722 157.092L116.153 156.665L121.136 113.81L121.99 113.668C132.668 111.817 146.336 115.804 159.435 119.505C170.825 122.78 181.645 125.912 187.91 124.061C196.452 121.641 201.151 116.515 208.696 101.424L209.266 100.285L210.263 100.997C218.236 106.407 230.337 114.522 234.039 124.773L234.182 125.058L234.039 125.343C230.337 140.434 210.405 171.045 180.791 173.465C178.371 173.75 176.093 173.892 173.815 173.892ZM118.573 155.668C122.702 158.231 149.896 174.035 180.506 171.472C208.981 169.194 228.202 140.007 231.903 125.343C228.487 116.231 217.808 108.827 210.12 103.559C202.717 118.366 197.591 123.634 188.622 126.197C181.788 128.19 170.682 124.916 158.865 121.641C146.906 118.224 133.38 114.237 123.129 115.661L118.573 155.668Z" fill="#FC4735"/>
<path d="M149.042 169.764C148.899 169.764 148.757 169.764 148.614 169.621C148.614 169.621 143.631 167.486 138.791 167.486C138.221 167.486 137.794 167.059 137.652 166.489C137.652 165.92 138.221 165.35 138.791 165.35C144.059 165.35 149.184 167.486 149.469 167.628C150.038 167.913 150.323 168.482 150.038 169.052C149.753 169.479 149.469 169.764 149.042 169.764Z" fill="#030047"/>
<path d="M277.036 66.2573H231.761C231.192 66.2573 230.622 65.8302 230.622 65.1183C230.622 64.4064 231.049 63.9793 231.761 63.9793H274.901V6.03284H214.249V34.9349C214.249 35.5044 213.822 36.0738 213.11 36.0738C212.398 36.0738 211.971 35.6467 211.971 34.9349V3.89722H277.036V66.2573Z" fill="#030047"/>
<path d="M260.806 15.999C259.382 15.2872 257.673 15.7143 256.961 17.138L243.293 42.3383L234.893 33.5111C233.897 32.5145 232.331 32.2297 231.192 32.9416C229.625 33.9382 229.483 35.9314 230.622 37.2128L240.304 47.6062L242.439 49.8842C243.436 50.8808 245.002 50.7384 245.714 49.4571L247.28 46.7519L261.945 19.8432C262.656 18.4194 262.087 16.7109 260.806 15.999Z" fill="#FC4735"/>
<path d="M280.169 0.764954H271.484V9.44977H280.169V0.764954Z" fill="#030047"/>
<path d="M241.445 167.536L226.983 200.137L259.584 214.599L274.046 181.998L241.445 167.536Z" fill="white"/>
<path d="M260.316 216.178L225.577 200.738L241.016 166L275.755 181.439L260.316 216.178ZM228.511 199.503L259.08 213.09L272.667 182.52L242.097 168.934L228.511 199.503Z" fill="#030047"/>
<path d="M237.399 135.465L273.9 166.919C273.9 166.919 288.029 143.875 273.9 130.923C256.238 114.775 237.399 135.465 237.399 135.465Z" fill="white"/>
<path d="M274.237 168.938L235.717 135.633L236.558 134.624C236.894 134.119 246.314 124.027 258.257 123.522C264.312 123.186 269.863 125.372 274.741 129.914C289.543 143.37 275.582 166.583 274.909 167.592L274.237 168.938ZM239.249 135.465L273.564 165.069C276.255 160.191 284.329 142.361 273.059 131.932C268.518 127.895 263.639 125.877 258.425 126.045C249.51 126.55 241.772 132.942 239.249 135.465Z" fill="#030047"/>
<path d="M262.681 165.366C267.478 165.366 271.366 161.478 271.366 156.681C271.366 151.885 267.478 147.997 262.681 147.997C257.885 147.997 253.996 151.885 253.996 156.681C253.996 161.478 257.885 165.366 262.681 165.366Z" fill="white"/>
<path d="M262.681 166.363C257.271 166.363 253 161.949 253 156.681C253 151.414 257.413 147 262.681 147C267.949 147 272.363 151.414 272.363 156.681C272.363 161.949 268.092 166.363 262.681 166.363ZM262.681 149.136C258.552 149.136 255.135 152.553 255.135 156.681C255.135 160.81 258.552 164.227 262.681 164.227C266.81 164.227 270.227 160.81 270.227 156.681C270.227 152.553 266.953 149.136 262.681 149.136Z" fill="#030047"/>
<path d="M280.738 222.727C280.453 222.727 280.026 222.585 279.884 222.3L275.043 215.751C274.758 215.323 274.759 214.612 275.328 214.327C275.755 214.042 276.467 214.042 276.752 214.612L281.593 221.161C281.877 221.588 281.877 222.3 281.308 222.585C281.165 222.727 280.881 222.727 280.738 222.727Z" fill="#030047"/>
<path d="M179.937 199.235C179.652 199.235 179.368 199.093 179.083 198.95C178.656 198.523 178.656 197.811 179.225 197.384L190.33 187.418C190.757 186.991 191.469 186.991 191.897 187.56C192.324 187.988 192.324 188.699 191.754 189.127L180.649 199.093C180.364 199.235 180.222 199.235 179.937 199.235Z" fill="#030047"/>
<path d="M222.649 178.733C222.365 178.733 222.08 178.591 221.795 178.306L217.809 173.465C217.382 173.038 217.524 172.326 217.951 171.899C218.378 171.472 219.09 171.614 219.517 172.042L223.504 176.882C223.931 177.309 223.788 178.021 223.361 178.448C223.076 178.733 222.934 178.733 222.649 178.733Z" fill="#030047"/>
<path d="M275.897 85.3355C275.613 85.3355 275.47 85.1931 275.186 85.0507C274.758 84.6236 274.616 84.0541 275.043 83.4846L279.884 77.6472C280.311 77.2201 280.881 77.0778 281.45 77.5049C281.877 77.932 282.02 78.5015 281.592 79.071L276.752 84.9083C276.467 85.1931 276.182 85.3355 275.897 85.3355Z" fill="#030047"/>
<path d="M320.888 138.441C320.603 138.441 320.318 138.299 320.034 138.014L310.067 126.055C309.64 125.627 309.783 124.916 310.21 124.488C310.637 124.061 311.349 124.204 311.776 124.631L321.742 136.59C322.169 137.017 322.027 137.729 321.6 138.156C321.315 138.441 321.173 138.441 320.888 138.441Z" fill="#030047"/>
<path d="M200.154 36.2162C200.012 36.2162 200.012 36.2162 199.869 36.2162L190.758 34.0806C190.188 33.9382 189.761 33.3687 189.903 32.7992C190.046 32.2297 190.615 31.8026 191.185 31.945L200.297 34.0806C200.866 34.223 201.293 34.7924 201.151 35.3619C201.008 35.9314 200.581 36.2162 200.154 36.2162Z" fill="#030047"/>
<path d="M304.823 91.1984H252.174V143.847H304.823V91.1984Z" fill="white"/>
<path d="M306 145.025H250.828V89.8527H306V145.025ZM253.351 142.502H303.477V92.3758H253.351V142.502Z" fill="#030047"/>
<path d="M261.216 203.933H204.3C201.539 203.933 199.3 206.172 199.3 208.933V265.85C199.3 268.611 201.539 270.85 204.3 270.85H261.216C263.977 270.85 266.216 268.611 266.216 265.85V208.933C266.216 206.172 263.977 203.933 261.216 203.933Z" fill="white"/>
<path d="M267.355 271.989H198.303V202.937H267.355V271.989ZM200.297 269.853H265.077V205.073H200.297V269.853Z" fill="#030047"/>
<path d="M247.565 226.856H218.663C218.093 226.856 217.524 226.429 217.524 225.717C217.524 225.005 217.951 224.578 218.663 224.578H247.565C248.134 224.578 248.704 225.005 248.704 225.717C248.704 226.429 248.134 226.856 247.565 226.856Z" fill="#030047"/>
<path d="M247.565 235.968H218.663C218.093 235.968 217.524 235.541 217.524 234.829C217.524 234.117 217.951 233.69 218.663 233.69H247.565C248.134 233.69 248.704 234.117 248.704 234.829C248.704 235.541 248.134 235.968 247.565 235.968Z" fill="#030047"/>
<path d="M247.565 244.937H241.727C241.158 244.937 240.589 244.51 240.589 243.798C240.589 243.086 241.016 242.659 241.727 242.659H247.565C248.134 242.659 248.704 243.086 248.704 243.798C248.704 244.51 248.134 244.937 247.565 244.937Z" fill="#030047"/>
<path d="M236.317 244.937H218.663C218.093 244.937 217.524 244.51 217.524 243.798C217.524 243.086 217.951 242.659 218.663 242.659H236.317C236.887 242.659 237.456 243.086 237.456 243.798C237.456 244.51 236.887 244.937 236.317 244.937Z" fill="#030047"/>
<path d="M263.695 186.022C263.081 184.476 261.896 183.26 260.36 182.598C258.824 181.935 257.126 181.908 255.581 182.522L241.896 187.96C240.351 188.574 239.135 189.759 238.472 191.295C237.81 192.831 237.783 194.529 238.397 196.074C239.011 197.619 240.195 198.835 241.732 199.498C243.268 200.161 244.965 200.187 246.511 199.573L260.196 194.135C263.397 192.863 264.967 189.223 263.695 186.022ZM245.861 197.938C244.752 198.378 243.533 198.358 242.429 197.882C241.324 197.405 240.473 196.533 240.033 195.424C239.592 194.315 239.612 193.097 240.088 191.992C240.565 190.887 241.438 190.036 242.546 189.596L248.6 187.19L251.915 195.532L245.861 197.938ZM259.546 192.5L253.551 194.882L250.236 186.54L256.231 184.158C257.339 183.718 258.558 183.737 259.663 184.214C260.768 184.69 261.619 185.563 262.059 186.672C262.973 188.971 261.845 191.586 259.546 192.5Z" fill="#030047" stroke="#030047" stroke-width="0.5"/>
<path d="M259.7 186.832C259.521 186.38 259.009 186.159 258.557 186.339C258.106 186.518 257.885 187.03 258.065 187.482C258.513 188.61 257.96 189.892 256.831 190.341C256.38 190.52 256.159 191.032 256.339 191.484C256.428 191.709 256.601 191.877 256.808 191.967C257.015 192.056 257.256 192.066 257.481 191.976C259.512 191.17 260.507 188.862 259.7 186.832Z" fill="#030047"/>
<path d="M266.004 104.804C267.491 103.761 269.266 103.209 271.137 103.209C273.011 103.209 274.73 103.805 276.247 104.98C277.735 106.133 278.725 107.615 279.293 108.655C279.401 108.853 279.608 108.976 279.833 108.976C280.058 108.976 280.265 108.853 280.373 108.655C280.941 107.615 281.931 106.133 283.42 104.98C284.936 103.805 286.655 103.209 288.529 103.209C292.312 103.209 295.555 105.467 296.994 109.101C297.089 109.343 297.321 109.49 297.566 109.49C297.641 109.49 297.718 109.476 297.792 109.447C298.108 109.322 298.263 108.964 298.138 108.648C296.509 104.534 292.828 101.979 288.529 101.979C286.376 101.979 284.404 102.661 282.666 104.007C281.413 104.978 280.482 106.149 279.833 107.157C279.184 106.149 278.254 104.978 277 104.007C275.263 102.661 273.29 101.979 271.137 101.979C269.012 101.979 266.993 102.607 265.297 103.797C265.019 103.992 264.952 104.376 265.147 104.654C265.342 104.932 265.726 104.999 266.004 104.804Z" fill="#030047" stroke="#030047"/>
<path d="M298.906 111.714C298.866 111.376 298.56 111.136 298.222 111.176C297.885 111.216 297.644 111.522 297.684 111.86C297.741 112.331 297.769 112.817 297.769 113.302C297.769 118.465 294.466 122.292 287.96 127.968C287.704 128.192 287.678 128.58 287.901 128.836C288.023 128.976 288.194 129.047 288.365 129.047C288.509 129.047 288.653 128.997 288.769 128.896C291.506 126.508 294.298 123.939 296.176 121.336C298.103 118.668 299 116.115 299 113.302C299 112.768 298.968 112.233 298.906 111.714Z" fill="#030047" stroke="#030047"/>
<path d="M268.074 119.303L269.508 116.769L272.911 122.784C273.021 122.977 273.225 123.096 273.447 123.096C273.668 123.096 273.873 122.977 273.982 122.784L277.981 115.716L280.011 119.303C280.12 119.496 280.324 119.615 280.546 119.615H283.969C284.261 121.256 285.697 122.506 287.42 122.506C287.76 122.506 288.035 122.23 288.035 121.89C288.035 121.551 287.76 121.275 287.42 121.275C286.165 121.275 285.145 120.255 285.145 119C285.145 117.746 286.165 116.725 287.42 116.725C288.674 116.725 289.695 117.746 289.695 119C289.695 119.395 289.593 119.783 289.399 120.124C289.231 120.419 289.334 120.795 289.629 120.963C289.924 121.131 290.3 121.028 290.468 120.733C290.767 120.207 290.925 119.608 290.925 119C290.925 117.067 289.353 115.494 287.42 115.494C285.697 115.494 284.261 116.744 283.969 118.385H280.905L278.517 114.164C278.407 113.971 278.203 113.852 277.981 113.852C277.76 113.852 277.555 113.971 277.446 114.164L273.447 121.231L270.044 115.216C269.934 115.023 269.73 114.904 269.508 114.904C269.287 114.904 269.082 115.023 268.973 115.216L267.18 118.385H263.129C262.328 116.78 261.897 115.119 261.897 113.302C261.897 110.827 262.617 108.567 263.979 106.766C264.184 106.495 264.13 106.109 263.859 105.904C263.588 105.699 263.202 105.753 262.997 106.024C261.473 108.04 260.667 110.557 260.667 113.302C260.667 115.129 261.045 116.794 261.754 118.385H257.615C257.275 118.385 257 118.66 257 119C257 119.34 257.275 119.615 257.615 119.615H262.376C264.574 123.516 268.761 127.092 274.17 131.71L274.178 131.716C275.533 132.873 277.069 134.185 278.664 135.582C278.988 135.865 279.403 136.022 279.833 136.022C280.264 136.022 280.679 135.865 281.002 135.582C282.522 134.25 284.888 132.227 286.535 130.821C286.793 130.6 286.824 130.212 286.603 129.953C286.383 129.695 285.994 129.664 285.736 129.885C284.086 131.293 281.717 133.32 280.191 134.657C280.092 134.743 279.965 134.791 279.833 134.791C279.702 134.791 279.575 134.743 279.475 134.656C277.874 133.254 276.335 131.94 274.977 130.78L274.969 130.774C269.946 126.485 266.011 123.126 263.82 119.615H267.539C267.76 119.615 267.965 119.496 268.074 119.303Z" fill="#030047" stroke="#030047"/>
</svg>
